# xmcd
#
# Track frame offsets:
#	151
#	16801
#	46795
#	73360
#	99659
#	121651
#	150153
#	184394
#	208473
#	236945
#	260298
#	292184
#
# Disc length: 4289 seconds
#
# Revision: 1
# Processed by: cddbd v1.5PL3 Copyright (c) Steve Scherf et al.
# Submitted via: audiograbber 1.83.01
#
DISCID=af10bf0c
DTITLE=Compilation - Effendi Mood
DYEAR=2003
DGENRE=Jazz
TTITLE0=Yannick Rieu - Little Zab
TTITLE1=Sylvain Provost - Chemin d'Ivoire
TTITLE2=Michel Côté - Dame Jeanne
TTITLE3=Yves Léveillé - Rituel
TTITLE4=Michel Côté - Oracle
TTITLE5=Gilles Bernard - Pour moi c'est toi
TTITLE6=Jocelyn Ménard - Tristesse
TTITLE7=Michel Lambert - Ripped Wing
TTITLE8=Roberto Occhipinti - Tosca (G.Puccini)
TTITLE9=Joel Miller - Christine
TTITLE10=Jean-Pierre Zanella - Mother Tree
TTITLE11=Karl Jannuska - Leaving Yverdon
EXTD=Année: 2003\nMade in Québec\nEffendi Records
EXTT0=
EXTT1=
EXTT2=
EXTT3=
EXTT4=
EXTT5=
EXTT6=
EXTT7=
EXTT8=
EXTT9=
EXTT10=
EXTT11=
PLAYORDER=
